<?xml version="1.0" standalone="no"?>
<!DOCTYPE svg PUBLIC "-//W3C//DTD SVG 20010904//EN" "http://www.w3.org/TR/2001/REC-SVG-20010904/DTD/svg10.dtd">
<svg version="1.0" xmlns="http://www.w3.org/2000/svg" width="512.000000pt" height="512.000000pt"
  viewBox="0 0 512.000000 512.000000" preserveAspectRatio="xMidYMid meet">

  <g transform="translate(0.000000,512.000000) scale(0.100000,-0.100000)" fill="#F04639" stroke="none">
    <path d="M2469 4860 c-90 -15 -190 -83 -234 -158 -17 -28 -19 -28 -109 -29
-55 0 -107 -6 -131 -15 -39 -15 -41 -14 -87 18 -72 49 -136 67 -226 63 -165
-8 -289 -118 -322 -285 -12 -60 -12 -60 -60 -77 -62 -22 -147 -100 -185 -168
-21 -40 -29 -70 -33 -126 -4 -70 -6 -74 -38 -93 -44 -28 -88 -80 -121 -143
-25 -46 -28 -63 -28 -147 0 -115 19 -163 96 -245 l51 -54 -27 -33 c-33 -38
-50 -78 -65 -143 -7 -29 -72 -150 -177 -328 -92 -155 -175 -298 -185 -318 -17
-34 -18 -68 -16 -561 l3 -524 28 -42 c15 -23 46 -54 69 -69 41 -28 42 -28 240
-31 128 -2 198 -7 198 -14 0 -27 81 -827 86 -853 18 -87 86 -168 173 -209 46
-21 49 -21 1121 -21 591 0 1102 2 1135 4 33 2 92 3 132 2 59 -2 82 2 126 22
130 60 201 194 176 334 -12 65 -56 141 -101 177 -17 13 -39 46 -51 77 -24 62
-26 182 -4 369 l12 105 195 5 195 5 45 30 c31 21 54 47 73 84 l27 55 0 505 c0
473 -2 509 -19 546 -10 22 -96 170 -190 329 -102 172 -171 300 -171 315 0 49
-55 145 -112 195 l-54 48 28 56 c50 103 53 243 7 334 -34 66 -103 133 -169
162 -33 15 -60 29 -60 30 0 2 7 23 15 46 34 97 9 233 -59 323 -33 43 -114 99
-170 117 -61 20 -162 15 -229 -10 l-59 -22 -36 35 c-63 61 -135 91 -228 95
-77 4 -82 5 -94 30 -63 143 -225 229 -381 202z m152 -166 c47 -24 97 -92 109
-149 14 -68 37 -89 87 -81 21 4 67 9 103 12 84 6 129 -18 186 -101 35 -52 45
-60 76 -63 26 -2 43 3 64 21 50 42 95 60 151 59 102 -1 182 -75 191 -176 6
-75 -11 -116 -70 -174 -57 -57 -67 -95 -32 -133 17 -19 26 -21 87 -15 94 9
142 -6 194 -59 64 -67 74 -162 27 -261 -19 -40 -68 -84 -93 -84 -39 0 -112
-34 -154 -70 l-44 -39 -24 25 c-13 14 -51 39 -86 56 -115 56 -256 37 -354 -50
l-36 -31 -27 28 c-58 60 -179 97 -266 81 -67 -13 -100 -27 -156 -70 l-51 -39
-29 30 c-104 108 -325 107 -430 -2 l-27 -28 -36 31 c-110 96 -278 108 -397 27
-22 -15 -46 -34 -53 -43 -12 -14 -17 -13 -49 16 -54 47 -127 76 -212 84 -124
11 -184 47 -216 131 -38 98 5 204 103 252 77 39 78 39 78 150 0 92 2 100 29
135 34 45 79 74 126 82 69 11 81 15 101 35 19 19 20 29 15 78 -15 130 70 231
194 231 67 0 106 -18 160 -74 53 -56 75 -58 155 -16 68 36 90 37 178 8 93 -30
114 -22 144 58 13 34 38 75 58 94 56 54 156 69 226 34z m-1268 -1371 c15 -7
39 -32 54 -54 25 -38 28 -52 39 -222 7 -100 15 -217 18 -260 l5 -77 -172 2
-172 3 -12 100 c-20 182 -26 347 -14 393 31 112 151 167 254 115z m482 7 c39
-15 83 -71 94 -119 5 -25 13 -148 17 -273 l6 -228 -165 0 -165 0 -6 58 c-3 31
-11 141 -17 244 l-12 187 24 47 c45 90 127 120 224 84z m467 10 c21 -6 51 -22
68 -37 57 -47 60 -63 60 -281 0 -214 7 -253 46 -271 35 -15 47 -14 77 9 l25
20 4 218 c3 207 4 219 27 258 30 54 90 88 151 87 58 -1 101 -23 137 -70 l28
-37 -3 -255 c-2 -140 -6 -259 -8 -263 -3 -4 -65 -8 -139 -8 -74 0 -145 -4
-159 -10 -14 -5 -43 -25 -65 -45 l-40 -37 -52 44 -51 43 -153 3 -153 3 -7 234
c-4 129 -4 250 -1 270 9 47 60 102 111 120 49 17 51 17 97 5z m1045 -22 c36
-21 68 -68 77 -113 3 -16 -1 -129 -9 -250 -8 -121 -15 -226 -15 -232 0 -10
-40 -13 -166 -13 l-167 0 7 248 c7 218 10 252 28 289 44 94 155 126 245 71z
m445 22 c45 -13 93 -52 114 -92 24 -46 26 -178 7 -363 l-18 -170 -174 -3 -173
-2 6 72 c3 40 11 154 17 253 15 226 32 267 126 301 47 16 49 16 95 4z m336
-540 l50 -85 -60 -3 c-33 -2 -63 -1 -65 2 -3 3 -2 46 2 96 4 51 11 88 15 83 4
-4 31 -46 58 -93z m-3164 4 c4 -47 5 -88 3 -91 -3 -2 -32 -3 -65 -1 l-61 3 51
88 c28 48 54 87 58 87 4 0 10 -39 14 -86z m1414 -275 c88 -77 167 -78 258 -3
l42 34 791 0 c778 0 791 0 811 -20 19 -19 20 -33 20 -508 0 -478 0 -489 -20
-510 l-21 -22 -777 0 -778 0 -27 84 c-41 125 -82 166 -167 166 -85 0 -126 -41
-167 -166 l-27 -84 -778 0 c-765 0 -778 0 -798 20 -19 19 -20 33 -20 510 0
477 1 491 20 510 20 20 33 20 811 20 l791 0 36 -31z m171 -1040 c45 -136 49
-139 199 -139 l121 0 -5 -142 c-4 -79 -11 -291 -18 -473 l-11 -330 -125 0
-125 0 -5 343 c-5 325 -6 344 -24 358 -29 21 -80 18 -102 -7 -18 -20 -19 -43
-22 -360 l-3 -339 -120 0 c-87 0 -121 3 -124 13 -2 6 -8 161 -14 342 -6 182
-14 390 -17 463 l-7 132 120 0 c154 0 157 2 203 144 19 58 37 103 41 99 3 -5
21 -51 38 -104z m-989 -156 c0 -10 14 -218 30 -463 16 -245 30 -451 30 -459 0
-22 -167 -11 -210 14 -62 37 -65 54 -109 502 -23 226 -41 414 -41 417 0 3 68
6 150 6 136 0 150 -2 150 -17z m440 -15 c0 -18 7 -204 15 -413 8 -209 15 -408
15 -442 l0 -63 -130 0 c-97 0 -130 3 -130 13 0 6 -14 215 -30 462 -16 248 -30
456 -30 463 0 9 36 12 145 12 l145 0 0 -32z m1310 25 c0 -5 -7 -99 -15 -211
-14 -202 -14 -203 -45 -242 -90 -113 -101 -252 -29 -365 22 -35 29 -57 27 -84
l-3 -36 -127 -3 -128 -3 0 88 c0 62 27 832 30 861 0 6 290 1 290 -5z m447 -50
c-3 -32 -9 -94 -13 -138 l-6 -80 -107 0 c-91 0 -112 -3 -150 -23 l-43 -23 6
93 c4 51 9 123 12 161 l6 67 150 0 151 0 -6 -57z m-52 -383 c39 -24 61 -63 70
-123 6 -36 14 -53 37 -70 63 -46 87 -75 98 -115 15 -57 0 -109 -45 -152 -34
-33 -40 -35 -107 -35 l-71 0 -53 60 -54 60 -77 0 c-66 0 -83 4 -112 24 -46 33
-75 100 -66 152 9 51 53 102 107 124 24 9 57 32 76 51 54 56 130 65 197 24z" />
    <path d="M1803 4224 c-23 -14 -65 -28 -93 -31 -76 -9 -87 -28 -88 -152 0 -89
2 -101 21 -119 20 -18 105 -36 161 -34 33 1 56 35 66 97 6 39 19 70 38 94 42
53 54 80 48 107 -17 65 -79 81 -153 38z" />
    <path d="M2750 4117 c-14 -7 -38 -39 -56 -72 -19 -38 -46 -72 -75 -94 -24 -18
-48 -44 -53 -58 -17 -49 38 -123 91 -123 16 0 45 18 79 49 68 62 128 80 205
60 43 -11 54 -11 77 2 30 16 53 72 55 132 2 60 -25 76 -121 75 -53 -1 -87 3
-107 14 -49 25 -69 28 -95 15z" />
    <path d="M962 2439 c-23 -12 -52 -35 -65 -53 -22 -31 -22 -35 -22 -356 l0
-325 24 -34 c13 -18 42 -42 65 -52 38 -17 77 -19 611 -19 l571 0 44 23 c52 26
78 59 90 113 12 51 12 537 0 588 -12 54 -38 87 -90 114 l-44 22 -571 0 c-560
0 -571 0 -613 -21z m1166 -141 c18 -18 17 -521 -2 -537 -9 -8 -164 -10 -557
-9 l-544 3 -3 265 c-1 146 0 270 3 277 6 18 1085 19 1103 1z" />
    <path d="M2835 2441 c-48 -22 -69 -44 -90 -94 -12 -30 -15 -87 -15 -317 0
-230 3 -287 15 -317 21 -50 42 -72 90 -94 37 -17 78 -19 609 -19 558 0 571 0
613 21 29 14 52 35 68 63 l25 43 0 303 c0 286 -1 304 -21 339 -11 20 -36 48
-56 61 -34 23 -46 25 -181 28 -160 4 -194 -4 -212 -47 -12 -30 -1 -72 22 -88
7 -4 76 -10 153 -13 l140 -5 0 -275 0 -275 -549 -3 c-433 -2 -551 0 -558 10
-13 22 -10 522 4 536 9 9 82 12 268 12 244 0 257 1 278 20 32 30 30 82 -4 109
-26 20 -39 21 -293 21 -237 0 -270 -2 -306 -19z" />
    <path d="M474 1006 c-28 -13 -66 -37 -86 -55 -30 -26 -44 -31 -86 -31 -111 0
-221 -72 -274 -177 -34 -70 -33 -177 3 -254 52 -111 146 -173 269 -175 58 -2
88 -8 134 -30 185 -85 393 27 426 231 6 39 18 92 26 119 59 203 -86 396 -299
396 -44 0 -77 -7 -113 -24z m196 -145 c67 -35 100 -139 65 -201 -8 -14 -14
-47 -15 -74 -1 -151 -140 -229 -257 -146 -33 24 -54 32 -77 30 -123 -12 -162
-1 -209 61 -49 67 -23 175 54 218 36 20 49 22 112 17 80 -7 82 -6 120 45 50
67 137 88 207 50z" />
    <path d="M4445 1010 c-101 -40 -177 -144 -190 -259 -4 -31 -13 -78 -21 -105
-32 -113 -4 -219 81 -302 114 -112 293 -117 412 -11 33 29 45 34 91 35 222 4
361 224 272 430 -45 105 -153 174 -275 176 -53 1 -82 7 -120 26 -68 34 -179
38 -250 10z m186 -148 c15 -9 39 -26 53 -36 25 -17 32 -18 81 -6 47 11 60 11
98 -4 98 -37 134 -132 84 -220 -38 -67 -98 -90 -195 -72 -42 8 -43 7 -95 -47
-31 -33 -65 -58 -83 -62 -16 -4 -34 -8 -41 -10 -25 -8 -89 19 -119 49 -40 40
-52 94 -35 151 7 22 17 71 21 110 10 75 28 107 80 143 41 27 113 30 151 4z" />
  </g>
</svg>