<?xml version="1.0" standalone="no"?>
<!DOCTYPE svg PUBLIC "-//W3C//DTD SVG 20010904//EN" "http://www.w3.org/TR/2001/REC-SVG-20010904/DTD/svg10.dtd">
<svg version="1.0" xmlns="http://www.w3.org/2000/svg" width="512.000000pt" height="512.000000pt"
  viewBox="0 0 512.000000 512.000000" preserveAspectRatio="xMidYMid meet">

  <g transform="translate(0.000000,512.000000) scale(0.100000,-0.100000)" fill="#F04639" stroke="none">
    <path d="M4208 4943 c-9 -10 -34 -48 -57 -84 l-41 -66 -61 -7 c-34 -3 -77 -6
-95 -6 -38 0 -74 -29 -74 -60 0 -11 27 -51 60 -89 33 -39 60 -78 60 -87 0 -10
-9 -51 -21 -92 -38 -137 -7 -162 132 -106 l90 36 77 -51 c85 -56 110 -61 137
-31 16 17 17 33 13 117 l-6 98 74 58 c69 55 79 69 74 107 -3 28 -28 42 -116
64 l-89 22 -32 83 c-18 46 -38 89 -44 97 -16 20 -63 17 -81 -3z m71 -267 c8
-9 34 -22 59 -28 l45 -11 -42 -34 c-39 -33 -41 -37 -41 -89 l0 -55 -37 26
c-44 29 -60 31 -108 8 -41 -20 -49 -15 -35 21 17 45 12 71 -21 112 l-31 39 34
3 c63 5 78 12 105 54 l28 41 15 -35 c9 -20 22 -43 29 -52z" />
    <path d="M1777 4539 c-106 -17 -209 -95 -252 -192 -12 -29 -60 -221 -105 -427
-45 -206 -86 -379 -90 -384 -5 -4 -132 19 -284 53 -344 77 -347 77 -427 57
-160 -41 -260 -167 -261 -328 0 -121 55 -226 151 -288 l50 -33 -187 -119
c-200 -126 -250 -171 -291 -258 -22 -46 -26 -69 -26 -145 0 -112 9 -130 172
-385 145 -227 132 -221 283 -126 57 37 107 66 111 66 5 0 10 -361 11 -803 l3
-802 27 -57 c34 -73 103 -142 176 -176 l57 -27 1210 0 1210 0 67 33 c81 40
148 110 180 190 l23 57 3 856 c2 834 2 857 -17 880 l-19 24 -1328 3 -1327 2
264 169 c145 92 649 412 1119 711 470 298 870 554 888 567 21 16 32 33 32 48
0 24 -229 395 -273 444 -35 37 -98 77 -152 96 -59 20 -165 22 -224 4 -22 -7
-121 -63 -219 -125 -97 -62 -179 -111 -181 -109 -2 2 5 47 15 99 16 89 16 98
0 163 -45 182 -207 292 -389 262z m148 -138 c58 -26 110 -88 125 -149 10 -46
9 -65 -15 -184 -15 -73 -31 -138 -34 -145 -7 -14 -523 -345 -528 -339 -2 2 31
160 74 352 86 389 97 416 182 461 55 29 138 31 196 4z m841 -282 c22 -10 52
-31 66 -46 29 -32 218 -327 218 -342 0 -7 -923 -601 -935 -601 -3 0 -289 447
-318 496 -4 7 132 99 361 245 202 128 377 239 388 246 53 34 150 35 220 2z
m-911 -809 c85 -134 152 -247 148 -251 -11 -11 -514 -330 -529 -336 -7 -2 -79
102 -173 249 l-160 252 32 21 c17 11 140 88 272 172 132 84 243 149 247 145 4
-4 77 -117 163 -252z m-870 169 c129 -29 235 -55 235 -58 -1 -3 -118 -79 -262
-169 -249 -156 -263 -163 -300 -157 -57 10 -128 62 -156 115 -20 38 -23 56
-20 116 3 58 8 78 30 110 49 70 123 107 200 99 21 -1 143 -27 273 -56z m210
-564 c85 -135 158 -251 160 -258 2 -7 -181 -129 -461 -307 -256 -162 -472
-298 -479 -303 -10 -5 -42 38 -115 153 -132 207 -146 247 -120 342 23 82 57
108 465 368 215 137 391 249 392 249 1 1 72 -109 158 -244z m373 -1733 l2
-903 -328 3 -329 3 -49 30 c-30 19 -60 49 -79 79 l-30 49 -3 824 -2 823 407
-2 408 -3 3 -903z m760 1 l2 -903 -320 0 -320 0 0 905 0 905 318 -2 317 -3 3
-902z m1137 87 l0 -815 -22 -41 c-28 -53 -91 -107 -142 -122 -26 -8 -165 -12
-445 -12 l-406 0 0 905 0 905 508 -2 507 -3 0 -815z" />
    <path d="M3393 4435 c-33 -14 -63 -59 -63 -95 0 -54 57 -110 112 -110 41 0 86
36 99 78 15 51 -8 104 -56 126 -40 19 -51 19 -92 1z m57 -95 c0 -5 -4 -10 -10
-10 -5 0 -10 5 -10 10 0 6 5 10 10 10 6 0 10 -4 10 -10z" />
    <path d="M4901 4294 c-85 -60 -43 -194 61 -194 55 0 108 51 108 105 0 53 -53
105 -107 105 -21 0 -49 -7 -62 -16z m69 -90 c0 -8 -5 -12 -10 -9 -6 4 -8 11
-5 16 9 14 15 11 15 -7z" />
    <path d="M4162 4253 c-11 -10 -30 -52 -42 -93 -12 -41 -33 -96 -48 -123 -30
-56 -103 -127 -160 -156 -89 -45 -238 -62 -357 -41 -127 23 -135 24 -155 5
-23 -21 -26 -53 -7 -79 32 -44 296 -70 427 -42 199 42 344 174 405 368 32 100
32 142 3 162 -29 20 -41 20 -66 -1z" />
    <path d="M4566 3794 c-9 -8 -34 -46 -56 -83 l-41 -68 -96 -6 c-155 -11 -170
-44 -71 -158 l62 -72 -22 -86 c-26 -101 -27 -115 -6 -135 23 -23 53 -20 143
15 l80 32 79 -52 c43 -28 85 -51 93 -51 8 0 25 7 38 17 23 16 24 19 18 117
l-7 101 73 60 c57 48 73 67 75 91 4 42 -13 54 -116 80 l-87 21 -33 84 c-19 46
-39 90 -44 97 -15 17 -63 15 -82 -4z m75 -271 c8 -6 33 -16 56 -22 l42 -12
-39 -35 c-37 -34 -40 -40 -40 -90 l0 -54 -41 27 c-42 28 -63 27 -133 -2 -16
-7 -18 -5 -13 9 4 10 10 34 13 54 5 31 1 43 -26 77 l-32 40 34 3 c62 5 75 12
103 54 l28 43 17 -40 c10 -22 23 -45 31 -52z" />
    <path d="M3535 3555 c-246 -55 -459 -211 -610 -445 -56 -87 -60 -101 -34 -134
37 -47 65 -34 129 60 30 45 74 105 98 133 102 119 281 232 422 265 132 31 317
16 470 -40 78 -28 115 -22 126 21 11 43 -16 68 -102 98 -161 56 -362 73 -499
42z" />
    <path d="M2383 2971 c-39 -24 -53 -49 -53 -93 0 -97 122 -141 184 -67 77 91
-31 222 -131 160z m67 -91 c0 -5 -4 -10 -10 -10 -5 0 -10 5 -10 10 0 6 5 10
10 10 6 0 10 -4 10 -10z" />
    <path d="M3772 2970 c-26 -25 -26 -22 -6 -133 l16 -88 -66 -60 c-36 -34 -69
-71 -72 -84 -13 -54 25 -77 155 -91 l64 -7 39 -83 c65 -139 105 -140 172 -5
l45 88 63 7 c123 14 158 32 158 83 0 10 -32 48 -71 85 l-71 66 16 93 c14 82
14 96 1 115 -26 40 -49 38 -141 -9 l-86 -45 -81 44 c-45 24 -89 44 -98 44 -8
0 -25 -9 -37 -20z m178 -181 l40 -21 40 21 c22 12 44 21 49 21 5 0 5 -19 1
-42 -9 -47 -2 -68 37 -110 l25 -27 -38 -7 c-57 -10 -72 -20 -96 -67 l-21 -42
-19 42 c-21 48 -35 58 -97 68 l-45 7 27 20 c40 29 54 65 47 116 -4 23 -3 42 2
42 4 0 26 -9 48 -21z" />
    <path d="M3140 2834 c-155 -33 -370 -179 -429 -292 -18 -35 5 -76 46 -80 26
-3 37 3 60 30 84 98 172 163 281 205 83 32 253 43 366 23 81 -14 109 -6 121
31 12 38 -24 72 -91 86 -78 16 -273 15 -354 -3z" />
    <path d="M4735 2798 c-37 -20 -55 -52 -55 -96 0 -110 148 -144 199 -45 21 42
13 83 -23 119 -36 36 -81 44 -121 22z m59 -99 c-3 -5 -10 -7 -15 -3 -5 3 -7
10 -3 15 3 5 10 7 15 3 5 -3 7 -10 3 -15z" />
    <path d="M2543 2475 c-33 -14 -63 -59 -63 -95 0 -54 57 -110 112 -110 41 0 86
36 99 78 15 51 -8 104 -56 126 -40 19 -51 19 -92 1z m57 -95 c0 -5 -4 -10 -10
-10 -5 0 -10 5 -10 10 0 6 5 10 10 10 6 0 10 -4 10 -10z" />
  </g>
</svg>