<?xml version="1.0" standalone="no"?>
<!DOCTYPE svg PUBLIC "-//W3C//DTD SVG 20010904//EN" "http://www.w3.org/TR/2001/REC-SVG-20010904/DTD/svg10.dtd">
<svg version="1.0" xmlns="http://www.w3.org/2000/svg" width="512.000000pt" height="512.000000pt"
  viewBox="0 0 512.000000 512.000000" preserveAspectRatio="xMidYMid meet">

  <g transform="translate(0.000000,512.000000) scale(0.100000,-0.100000)" fill="#F04639" stroke="none">
    <path d="M134 4711 c-51 -23 -108 -90 -123 -144 -9 -31 -11 -438 -9 -1568 l3
-1526 30 -49 c19 -30 49 -60 79 -79 l49 -30 285 -3 c328 -4 326 -4 338 75 17
122 98 195 215 195 107 0 191 -73 208 -181 15 -94 4 -91 316 -91 214 0 281 3
314 15 50 17 57 9 47 -58 -11 -64 -50 -123 -104 -153 -63 -36 -82 -54 -82 -74
0 -10 38 -134 85 -276 93 -286 108 -312 189 -350 84 -39 119 -34 405 60 141
47 445 146 676 221 485 158 1283 418 1660 542 143 47 271 91 285 98 66 35 120
125 120 202 0 52 -159 534 -185 561 -21 23 -26 23 -76 13 -133 -27 -248 57
-257 188 -2 32 1 74 7 93 15 45 63 94 122 124 26 13 50 32 54 43 4 12 -28 124
-80 283 -94 290 -109 319 -192 359 -92 44 -53 55 -1333 -364 l-1175 -384 -5
1056 -5 1056 -22 41 c-25 47 -73 91 -120 111 -25 10 -101 13 -321 13 -329 0
-311 5 -323 -86 -9 -65 -39 -114 -93 -152 -35 -24 -49 -27 -117 -27 -70 0 -81
3 -121 30 -52 37 -83 90 -92 156 -11 82 1 79 -324 79 -257 0 -291 -2 -328 -19z
m555 -162 c30 -81 107 -159 188 -189 78 -29 195 -25 266 9 83 41 149 122 181
224 5 16 25 17 243 17 204 0 242 -2 262 -16 53 -37 51 -3 51 -1133 l0 -1049
-188 -61 c-103 -33 -203 -71 -222 -83 -50 -34 -91 -98 -97 -152 l-6 -46 -60 0
c-68 0 -97 -17 -97 -58 0 -48 25 -62 111 -62 l77 0 67 -208 c37 -114 74 -215
83 -225 14 -16 26 -17 89 -11 67 6 78 4 128 -21 30 -14 55 -30 55 -35 0 -17
-65 -21 -279 -18 l-213 3 -15 45 c-52 154 -204 244 -369 218 -126 -20 -232
-113 -265 -233 l-10 -35 -230 0 c-186 0 -236 3 -259 15 -64 33 -60 -77 -58
1591 l3 1516 33 29 32 29 239 0 238 0 22 -61z m3791 -1468 c20 -14 39 -61 99
-241 70 -213 72 -224 55 -237 -47 -33 -98 -92 -122 -138 -37 -72 -42 -188 -13
-266 46 -122 167 -209 294 -212 l65 -2 72 -219 c77 -234 81 -264 37 -303 -12
-11 -27 -23 -33 -26 -37 -21 -2841 -927 -2868 -927 -65 0 -79 22 -155 254 -39
117 -71 220 -71 227 0 8 16 25 35 37 42 30 80 78 108 140 30 67 30 188 -1 256
-54 119 -155 191 -288 204 l-68 7 -68 210 c-37 116 -68 225 -68 243 0 57 37
83 195 135 208 68 954 311 1880 612 451 146 825 268 830 270 17 7 59 -5 85
-24z" />
    <path d="M232 4078 c-24 -31 -23 -57 3 -84 25 -25 30 -26 111 -23 71 3 88 7
100 23 19 27 18 60 -4 79 -23 21 -193 25 -210 5z" />
    <path d="M560 4075 c-20 -24 -15 -67 11 -88 20 -16 37 -18 107 -15 69 2 86 6
98 22 19 27 18 60 -4 79 -26 23 -193 25 -212 2z" />
    <path d="M891 4076 c-7 -8 -11 -30 -9 -48 4 -47 35 -59 131 -56 64 3 81 7 93
23 18 25 18 60 -2 79 -21 22 -196 23 -213 2z" />
    <path d="M1221 4076 c-7 -8 -11 -30 -9 -48 4 -43 34 -58 118 -58 82 0 114 15
118 56 5 53 -16 64 -122 64 -69 0 -97 -4 -105 -14z" />
    <path d="M1555 4074 c-10 -10 -15 -29 -13 -48 4 -41 36 -56 118 -56 82 0 114
15 118 56 5 52 -16 64 -118 64 -68 0 -92 -4 -105 -16z" />
    <path d="M658 3752 c-59 -36 -58 -20 -58 -729 0 -597 1 -651 18 -683 33 -67
51 -70 380 -70 320 0 344 4 379 56 17 26 18 67 21 649 2 341 0 645 -3 674 -6
44 -14 62 -40 88 l-33 33 -319 0 c-282 -1 -321 -2 -345 -18z m620 -729 l-3
-628 -277 -3 -278 -2 0 630 0 630 280 0 280 0 -2 -627z" />
    <path d="M244 2062 c-24 -16 -35 -51 -23 -74 18 -35 28 -38 114 -38 94 0 125
15 125 60 0 45 -31 60 -125 60 -44 0 -85 -4 -91 -8z" />
    <path d="M574 2062 c-6 -4 -17 -18 -24 -31 -10 -20 -9 -27 8 -50 17 -24 26
-26 102 -29 97 -3 130 11 130 57 0 48 -26 61 -121 61 -46 0 -89 -4 -95 -8z" />
    <path d="M897 2052 c-22 -24 -21 -65 1 -85 28 -26 182 -24 205 1 22 24 21 65
-1 85 -28 26 -182 24 -205 -1z" />
    <path d="M3940 2850 c-25 -25 -25 -29 6 -123 27 -80 46 -101 87 -95 12 2 28
15 36 29 13 23 12 33 -8 98 -32 105 -75 137 -121 91z" />
    <path d="M4062 2549 c-42 -16 -46 -46 -15 -134 30 -85 56 -111 97 -96 38 14
42 52 16 136 -13 42 -29 79 -34 84 -20 15 -41 18 -64 10z" />
    <path d="M3735 2383 c-11 -3 -294 -95 -630 -204 -445 -145 -616 -205 -633
-222 -45 -46 -41 -74 53 -364 48 -147 94 -283 102 -301 18 -37 58 -62 100 -62
25 0 283 82 998 317 277 91 309 108 321 167 4 23 -19 106 -87 316 -50 157 -98
294 -106 306 -21 33 -79 56 -118 47z m107 -380 c55 -167 80 -260 74 -265 -6
-3 -270 -90 -586 -193 -316 -104 -580 -190 -587 -192 -7 -3 -42 87 -98 258
-47 144 -84 263 -83 264 2 1 82 28 178 59 96 30 360 116 585 190 226 74 415
135 422 135 7 1 47 -109 95 -256z" />
    <path d="M2016 2224 c-21 -21 -20 -45 6 -127 32 -98 83 -124 123 -63 14 21 13
30 -6 92 -28 93 -43 114 -79 114 -15 0 -36 -7 -44 -16z" />
    <path d="M4147 2222 c-10 -10 -17 -30 -17 -44 0 -34 37 -138 57 -160 33 -37
93 -10 93 43 0 37 -40 152 -58 167 -23 17 -56 15 -75 -6z" />
    <path d="M2120 1910 c-11 -11 -20 -28 -20 -38 0 -28 41 -145 58 -164 23 -27
68 -23 89 8 16 25 15 29 -11 110 -34 104 -70 130 -116 84z" />
    <path d="M4263 1920 c-12 -5 -25 -20 -28 -33 -8 -28 31 -161 52 -182 23 -24
70 -19 88 9 15 23 15 30 -5 98 -13 46 -30 81 -46 96 -28 24 -29 25 -61 12z" />
    <path d="M2213 1584 c-16 -25 -15 -29 8 -102 29 -90 62 -123 103 -104 14 6 28
23 32 36 7 28 -30 151 -54 179 -23 26 -68 22 -89 -9z" />
    <path d="M4343 1584 c-16 -25 -15 -29 11 -111 21 -65 33 -87 52 -95 32 -15 71
3 80 36 7 28 -30 151 -54 179 -23 26 -68 22 -89 -9z" />
    <path d="M2320 1273 c-11 -15 -19 -31 -17 -37 2 -6 14 -42 27 -81 12 -38 29
-76 38 -82 38 -30 92 -1 92 49 0 34 -37 138 -57 160 -23 26 -58 22 -83 -9z" />
    <path d="M2420 961 c-15 -29 -13 -49 13 -127 26 -77 58 -105 97 -84 39 21 43
46 19 118 -31 96 -43 112 -84 112 -24 0 -37 -6 -45 -19z" />
  </g>
</svg>